<svg xmlns="http://www.w3.org/2000/svg" viewBox="0 0 348.15 100.21"><defs><style>.cls-1{fill:#7badd3;}.cls-2{fill:#124680;}.cls-3{fill:#b455a0;}</style></defs><g id="Layer_2" data-name="Layer 2"><g id="Layer_1-2" data-name="Layer 1"><path class="cls-1" d="M7,60.51H0V57.8H10.07V87.34H7Z"/><path class="cls-1" d="M20,79.12a7.35,7.35,0,0,1,5.6-7.45v-.09a6.45,6.45,0,0,1-4.51-6.51c0-4.78,3.79-7.85,9.3-7.85s9.3,3.07,9.3,7.85a6.49,6.49,0,0,1-4.52,6.51v.09a7.39,7.39,0,0,1,5.6,7.45c0,5.37-4.29,8.81-10.38,8.81S20,84.49,20,79.12Zm17.75-.23c0-3.74-2.71-6-7-6H30c-4.24,0-6.95,2.22-6.95,6,0,3.48,2.48,6.28,7.36,6.28S37.72,82.37,37.72,78.89Zm-7-8.53c3.62,0,5.88-1.85,5.88-5.11,0-2.89-2.08-5.28-6.28-5.28s-6.28,2.39-6.28,5.28c0,3.26,2.26,5.11,5.87,5.11Z"/><path class="cls-1" d="M44.62,77.45V67.69c0-6.32,4.3-10.47,10.44-10.47s10.43,4.15,10.43,10.47v9.76c0,6.32-4.29,10.48-10.43,10.48S44.62,83.77,44.62,77.45Zm17.84,0V67.69c0-4.69-2.93-7.67-7.4-7.67s-7.41,3-7.41,7.67v9.76c0,4.69,2.94,7.68,7.41,7.68S62.46,82.14,62.46,77.45Z"/><path class="cls-1" d="M69.91,77.45V67.69c0-6.32,4.29-10.47,10.43-10.47s10.43,4.15,10.43,10.47v9.76c0,6.32-4.28,10.48-10.43,10.48S69.91,83.77,69.91,77.45Zm17.84,0V67.69C87.75,63,84.81,60,80.34,60s-7.4,3-7.4,7.67v9.76c0,4.69,2.93,7.68,7.4,7.68S87.75,82.14,87.75,77.45Z"/><path class="cls-2" d="M99.82,74.69V49.75H104V74.69c0,6.38,3.74,9.6,8.74,9.6s8.74-3.39,8.74-9.6V49.75h4.13V74.69c0,6.21,3.68,9.6,8.74,9.6s8.74-3.22,8.74-9.6V49.75h4.14V74.69c0,8.91-5.47,13.4-12.59,13.4-5.18,0-9.2-2.48-11.1-7-1.89,4.54-5.92,7-11.09,7C105.28,88.09,99.82,83.6,99.82,74.69Z"/><path class="cls-2" d="M152.41,73.31c0-8.85,6.32-15.11,15.29-15.11s15.23,6.15,15.23,15.11v14h-3.56v-7c-2,5-6.73,7.76-12.25,7.76C159.13,88.09,152.41,82.4,152.41,73.31Zm26.67-.17c0-6.55-4.6-11.38-11.38-11.38s-11.38,4.83-11.38,11.38,4.59,11.38,11.38,11.38S179.08,79.69,179.08,73.14Z"/><path class="cls-2" d="M223.67,73.31c0-8.85,6.32-15.11,15.29-15.11s15.23,6.15,15.23,15.11v14h-3.56v-7c-2,5-6.73,7.76-12.25,7.76C230.39,88.09,223.67,82.4,223.67,73.31Zm26.67-.17c0-6.55-4.6-11.38-11.38-11.38s-11.38,4.83-11.38,11.38,4.6,11.38,11.38,11.38S250.34,79.69,250.34,73.14Z"/><path class="cls-2" d="M260.39,72.51c0-9.43,5.63-14.31,14-14.31s14,4.88,14,14.31V87.34h-3.85V72.51c0-7-4-10.75-10.17-10.75s-10.18,3.74-10.18,10.75V87.34h-3.85Z"/><path class="cls-2" d="M312.94,91.07h3.85c1.49,3.86,5,5.75,9.71,5.75,6.09,0,10.35-3,10.35-10.4V81.65c-2,4.08-5.81,6.26-10.75,6.26-7.59,0-13.45-4.59-13.45-14.31V58.94h3.85V73.6c0,7,4,10.75,10.17,10.75s10.18-3.79,10.18-10.75V58.94h3.85V86.3c0,9.89-6.27,13.91-14.2,13.91C320.06,100.21,314.72,97.23,312.94,91.07Z"/><path class="cls-2" d="M203,58.25c-.44,0-.88,0-1.34,0-7.07,0-12,4-12,12.12v17h3.85v-17c0-5.92,3.22-8.56,8.11-8.56a11.56,11.56,0,0,1,1.34.1Z"/><path class="cls-2" d="M220.84,58.25c-.43,0-.88,0-1.34,0-7.07,0-11.95,4-11.95,12.12v17h3.85v-17c0-5.92,3.22-8.56,8.1-8.56a11.4,11.4,0,0,1,1.34.1Z"/><path class="cls-3" d="M305.74,84.52c-4.39,0-7.25-2.49-7.25-7.64V62.45h7.25V58.94h-7.25V45.44h-3.85V76.88c0,7.45,4.52,11.18,11.1,11.2Z"/><path class="cls-3" d="M289.9,47.49V45.63s-6.7.79-9,1.28c.31-5.82,2.45-19.88,14.6-35.39a36.23,36.23,0,0,0-6.7,1.2c-10.1,14.53-12.19,27.34-12.55,33.53h0a43.26,43.26,0,0,0,.29,5.08h0a1.1,1.1,0,0,0,0,.18c.12.42.68,1.3,3.54.33h0c1.4-.42,9.79-1.55,9.79-1.55v-2.8Z"/><path class="cls-3" d="M304.07,45.44v4.62s3.89.39,5.82.75a43.85,43.85,0,0,0-.29-4.73c-1.8-.3-5.53-.64-5.53-.64Z"/><path class="cls-3" d="M329.16,44.25a30,30,0,0,0-11.18,2c-.36-6.28-2.5-19.36-13-34.15a32.84,32.84,0,0,0-6.37-.7C310.83,26.9,313,41,313.33,46.84c0,0,.25,3.19.23,4.87.44.14.89.28,1.31.44a4.62,4.62,0,0,0,.81.14,2.32,2.32,0,0,0,1.19-.33,23.55,23.55,0,0,1,12.29-3.07,41.79,41.79,0,0,1,10.59,1.49,42.12,42.12,0,0,0-1-5,44.6,44.6,0,0,0-9.61-1.11Z"/><path class="cls-3" d="M347.37,51.69a2.29,2.29,0,0,0,.73-2.17l-.23-1.2C345.24,35,339.82,7.7,301,3.91c0,0,0-.07,0-.1a3.88,3.88,0,0,0-1.51-3A3.84,3.84,0,0,0,297.05,0a3.93,3.93,0,0,0-3.91,3.91c0,.06,0,.11,0,.17s0,.06,0,.09c-39.18,6.41-44.46,32.57-47,45.35a2.33,2.33,0,0,0,3.21,2.58,44.37,44.37,0,0,1,15.73-3.21,26.87,26.87,0,0,1,7.61,1,38.39,38.39,0,0,1,0-4.79,32.12,32.12,0,0,0-7.57-.89,47.38,47.38,0,0,0-13.55,2.15c2.21-9.72,7.32-23.71,24.27-32.2a50.48,50.48,0,0,1,26.68-5.5h0a49,49,0,0,1,16.93,4.58c.52.24,1,.49,1.55.76l.38.18c15.31,8,19.33,22.2,21.4,32.19h0a38,38,0,0,1,.82,5.17s.16,2.79,3.57.28l.14-.08.05-.06.05,0Z"/></g></g></svg>